PathFileType	4	(X/Y/Z)	C:\Users\Willi\SynologyDrive\Deimel_MSc_Deadlift\Athlete_03\Athlete_3_22_07_06\dl_85\marker_experimental.trc
DataRate	CameraRate	NumFrames	NumMarkers	Units	OrigDataRate	OrigDataStartFrame	OrigNumFrames
200.000000	200.000000	4	59	mm	200.000000	0	1597
Frame#	Time	BR			GLAB			RFHD			LFHD			C7			T6			SPINMOL			SPINM2			SPINM3			BELTOL			BELT2			BELT3			SACROL			SACR2			SACR3			LTHOL			LTH2			LTH3			LSHAOL			LSHA2			LSHA3			LHEE			LTOE			LM5			RTHOL			RTH2			RTH3			RSHAOL			RSHA2			RSHA3			RHEE			RTOE			RM5			STRN			XIPH			LACR			LUAOL			LUA3			LLAOL			LLA2			LLA3			LWRU			RACR			RUAOL			RUA2			RUA3			RLAOL			RLA2			RLA3			RWRU			LUA2			BL			T12			USERMO0			USERMO1			USERMO2			USERMO3			USERMO4			USERMO5			
		X1	Y1	Z1	X2	Y2	Z2	X3	Y3	Z3	X4	Y4	Z4	X5	Y5	Z5	X6	Y6	Z6	X7	Y7	Z7	X8	Y8	Z8	X9	Y9	Z9	X10	Y10	Z10	X11	Y11	Z11	X12	Y12	Z12	X13	Y13	Z13	X14	Y14	Z14	X15	Y15	Z15	X16	Y16	Z16	X17	Y17	Z17	X18	Y18	Z18	X19	Y19	Z19	X20	Y20	Z20	X21	Y21	Z21	X22	Y22	Z22	X23	Y23	Z23	X24	Y24	Z24	X25	Y25	Z25	X26	Y26	Z26	X27	Y27	Z27	X28	Y28	Z28	X29	Y29	Z29	X30	Y30	Z30	X31	Y31	Z31	X32	Y32	Z32	X33	Y33	Z33	X34	Y34	Z34	X35	Y35	Z35	X36	Y36	Z36	X37	Y37	Z37	X38	Y38	Z38	X39	Y39	Z39	X40	Y40	Z40	X41	Y41	Z41	X42	Y42	Z42	X43	Y43	Z43	X44	Y44	Z44	X45	Y45	Z45	X46	Y46	Z46	X47	Y47	Z47	X48	Y48	Z48	X49	Y49	Z49	X50	Y50	Z50	X51	Y51	Z51	X52	Y52	Z52	X53	Y53	Z53	X54	Y54	Z54	X55	Y55	Z55	X56	Y56	Z56	X57	Y57	Z57	X58	Y58	Z58	X59	Y59	Z59	

1	0	256.4693603515625	250.5135498046875	-88.21884155273436	647.7278442382812	906.6395263671876	-1204.040405273438	619.2672729492188	961.7879028320314	-1127.899291992188	615.7656860351562	959.4108886718751	-1284.20458984375	425.138916015625	1032.346069335938	-1202.3974609375	228.459716796875	1035.317016601562	-1212.174682617188	194.6539611816406	1033.616821289062	-1213.410888671875	135.7351226806641	1020.541687011719	-1160.80322265625	134.5661773681641	1018.188232421875	-1210.544067382812	28.5263500213623	1009.165954589844	-1213.369140625	-23.56146812438965	980.0698852539064	-1160.14990234375	-28.32995796203613	983.9458007812501	-1209.930419921875	-89.29617309570312	926.0212402343751	-1229.326416015625	-77.5137939453125	928.8793945312501	-1179.494384765625	-134.3732452392578	897.3110351562501	-1189.9013671875	53.14100646972656	685.6296386718751	-1433.794677734375	52.15792083740234	605.7838745117189	-1430.1953125	91.65067291259766	637.2816162109376	-1431.691772460938	161.0596008300781	339.7417602539064	-1451.999267578125	109.6826705932617	279.7184448242189	-1450.992919921875	159.2328643798828	277.7622985839845	-1447.8408203125	38.77172470092773	66.86346435546884	-1373.96337890625	249.5057983398438	73.34632110595712	-1373.69140625	208.5477142333984	56.32339096069345	-1480.934814453125	66.68590545654297	657.0927734375001	-982.6433715820312	144.0636749267578	637.2958984375001	-980.0001220703125	103.8993148803711	607.3793334960939	-979.1815795898438	141.6177673339844	337.1053466796876	-967.1556396484375	171.1235656738281	263.4205017089844	-970.5914306640625	123.5015258789062	279.2541809082032	-975.8734130859375	44.15205001831055	64.60937500000007	-1069.032592773438	253.3712921142578	67.81517028808599	-1042.217041015625	201.5843963623047	68.34105682373053	-946.965087890625	407.9652709960938	856.0020141601564	-1211.172119140625	nan	nan	nan	421.6200866699219	903.3341674804689	-1406.092407226562	374.2049255371094	772.4642944335939	-1468.030639648438	376.9176025390625	706.8760375976564	-1463.526123046875	330.6225891113281	490.6863403320314	-1465.52685546875	303.2660522460938	432.7868957519532	-1480.300903320312	327.9248962402344	432.8125000000001	-1436.892822265625	297.2501220703125	341.196258544922	-1457.746215820312	434.3711242675781	891.0795288085939	-1020.700805664062	384.8089294433594	723.9127807617189	-984.4910278320312	375.4004821777344	667.3728637695314	-1015.835632324219	368.2437438964844	662.5360717773439	-966.5001220703125	329.6911010742188	472.7901000976563	-967.7340087890625	319.8456115722656	416.5825805664063	-998.0775146484375	312.153564453125	413.9011840820313	-947.6998291015625	288.94189453125	340.1980895996094	-941.8253173828125	337.9266357421875	722.2954711914064	-1493.553955078125	242.4420623779297	250.8003845214845	-2311.250244140625	87.07376098632812	998.1044311523439	-1211.605224609375	0.04118970036506653	0.02052539959549905	-0.09624689817428589	0.04801730066537857	0.04163220152258873	-0.0142257995903492	0.01558979973196983	0.02569939941167831	-0.0172410998493433	0.02915970049798489	1.289700031280518	-2.065000057220459	2.013740062713623	2.980540037155151	-1.98131000995636	2.842859983444214	0	0	
2	0.005	256.4897766113281	250.5008087158203	-88.21444702148436	647.4542846679688	908.7778930664064	-1204.161865234375	618.6607055664062	963.7548828125001	-1128.022705078125	615.1165771484375	961.3475952148439	-1284.322143554688	423.8905639648438	1032.816040039062	-1202.442626953125	227.2031555175781	1034.646728515625	-1212.095825195312	193.5036315917969	1032.739990234375	-1213.337036132812	134.6816864013672	1019.413940429688	-1160.690795898438	133.5098571777344	1016.990783691406	-1210.42724609375	28.09531784057617	1007.743041992188	-1213.27197265625	-23.89777565002441	978.4988403320314	-1160.0205078125	-28.68761444091797	982.3593750000001	-1209.801635742188	-89.53404235839844	924.2715454101564	-1229.186279296875	-77.74346923828125	927.1640625000001	-1179.356811523438	-134.5369873046875	895.4649047851564	-1189.744018554688	53.63411712646484	684.5588378906251	-1433.636474609375	52.96938705444336	604.7097778320314	-1430.159790039062	92.33708953857422	636.3651733398439	-1431.55712890625	161.9864959716797	339.493865966797	-1451.963500976562	110.4047622680664	279.654266357422	-1451.00048828125	159.94287109375	277.5285949707032	-1447.8447265625	38.78557205200195	66.89496612548837	-1373.959106445312	249.5188446044922	73.33023834228524	-1373.68359375	208.5543670654297	56.32289505004892	-1480.933471679688	67.38974761962891	656.0711669921876	-982.6871948242188	144.8478393554688	636.6109008789064	-980.12109375	104.8204956054688	606.5250244140626	-979.242431640625	142.5967712402344	336.9440917968751	-967.1819458007812	171.8504486083984	263.1553649902344	-970.6521606445312	124.2717056274414	279.1371459960938	-975.8970336914062	44.15778732299805	64.63781738281257	-1069.040649414062	253.3850708007812	67.77988433837896	-1042.252197265625	201.6012878417969	68.35254669189459	-946.9869384765625	407.8240051269531	856.4898681640626	-1211.212036132812	nan	nan	nan	420.4779357910156	903.8674926757814	-1406.262817382812	373.1878051757812	772.8359375000001	-1468.134155273438	376.0216979980469	707.2431030273439	-1463.672973632812	330.2198791503906	490.950897216797	-1465.696166992188	302.9671325683594	432.9828186035157	-1480.408081054688	327.6630554199219	433.0798950195314	-1437.01953125	297.1368103027344	341.3884887695314	-1457.79150390625	433.5596313476562	891.6735229492189	-1020.572448730469	384.2954711914062	724.3379516601564	-984.3654174804688	375.05419921875	667.7422485351564	-1015.674499511719	367.82861328125	662.9469604492189	-966.3404541015625	329.5602722167969	473.0644226074219	-967.3004760742188	320.0216674804688	416.8349609375001	-997.6935424804688	311.9550476074219	414.1814270019532	-947.4035034179688	288.9972229003906	340.4029541015626	-941.8248291015625	336.9706420898438	722.6141967773439	-1493.624145507812	242.4391937255859	250.7667236328126	-2311.251220703125	86.35017395019531	996.7850952148439	-1211.488159179688	0.03932470083236694	0.02003969997167588	-0.1005730032920837	0.0529014989733696	0.04334229975938797	-0.01426229998469352	0.01536049973219633	0.02696680091321468	-0.01697029918432236	0.03059200011193752	1.278620004653931	-2.065619945526123	2.013959884643555	2.98075008392334	-1.982550024986267	2.842210054397583	0	0	
3	0.01	256.5132141113281	250.4850921630859	-88.20999145507811	647.1280517578125	911.2241210937501	-1204.299560546875	617.9519653320312	966.0001831054689	-1128.160888671875	614.3612670898438	963.5601806640626	-1284.451293945312	422.4672241210938	1033.344482421875	-1202.490478515625	225.7850036621094	1033.8740234375	-1212.004028320312	192.2088775634766	1031.734497070312	-1213.251342773438	133.4963836669922	1018.125549316406	-1160.561889648438	132.3228149414062	1015.622436523438	-1210.29345703125	27.61516380310059	1006.12158203125	-1213.1630859375	-24.27190017700195	976.7132568359376	-1159.877685546875	-29.08499526977539	980.5547485351564	-1209.659790039062	-89.79834747314453	922.2836914062501	-1229.030151367188	-77.99833679199219	925.2155151367189	-1179.20361328125	-134.7178344726562	893.3705444335939	-1189.567993164062	54.19068145751953	683.3408203125001	-1433.45458984375	53.88510894775391	603.4898681640626	-1430.119506835938	93.11146545410156	635.3222656250001	-1431.403442382812	163.029296875	339.2111816406251	-1451.920043945312	111.2167739868164	279.5794982910157	-1451.003295898438	160.7411804199219	277.2619018554689	-1447.843139648438	38.80074310302734	66.92965698242196	-1373.953247070312	249.5340881347656	73.31152343750009	-1373.673461914062	208.564208984375	56.32429122924814	-1480.929443359375	68.18538665771484	654.9150390625001	-982.7396240234375	145.7330627441406	635.8344726562501	-980.264892578125	105.8608932495117	605.5582885742189	-979.315673828125	143.7000427246094	336.7610168457032	-967.2249755859375	172.668701171875	262.8575134277344	-970.7254638671875	125.1393280029297	279.0058898925782	-975.9306640625	44.16645050048828	64.66941833496101	-1069.050415039062	253.4006500244141	67.7395858764649	-1042.292236328125	201.6203460693359	68.36557006835943	-947.0119018554688	407.6616516113281	857.0440063476564	-1211.257934570312	nan	nan	nan	419.1762390136719	904.4713134765626	-1406.454467773438	372.02490234375	773.2555541992189	-1468.252563476562	374.9966735839844	707.6575927734376	-1463.839965820312	329.7471618652344	491.2522888183595	-1465.90087890625	302.6066284179688	433.2053527832032	-1480.529052734375	327.3687438964844	433.3832397460939	-1437.181030273438	297.0081176757812	341.6069335937501	-1457.845703125	432.6264038085938	892.3389282226564	-1020.424987792969	383.7064208984375	724.8181762695314	-984.2188110351562	374.6555480957031	668.1576538085939	-1015.482849121094	367.3543090820312	663.4101562500001	-966.1497192382812	329.4138793945312	473.3711242675782	-966.7837524414062	320.2391052246094	417.1156005859376	-997.2332763671875	311.7203674316406	414.4930725097657	-947.0513916015625	289.0679321289062	340.6292724609376	-941.8244018554688	335.8761291503906	722.9747924804689	-1493.703735351562	242.4360961914062	250.7285461425783	-2311.25146484375	85.53954315185547	995.2815551757814	-1211.356079101562	0.03773760050535202	0.01971380040049554	-0.1046219989657402	0.05869869887828827	0.04494630172848701	-0.01426710002124309	0.01504409965127707	0.02834160067141056	-0.01675040088593959	0.03181830048561096	1.274060010910034	-2.066289901733398	2.014260053634644	2.980920076370239	-1.983049988746643	2.841579914093018	0	0	
4	0.015	256.5395202636719	250.4662933349609	-88.20565032958983	646.7484741210938	913.9547119140626	-1204.451782226562	617.143310546875	968.5009765625001	-1128.311767578125	613.5029296875	966.0266113281251	-1284.589233398438	420.883544921875	1033.923583984375	-1202.539184570312	224.2243041992188	1033.004150390625	-1211.89990234375	190.7880401611328	1030.609130859375	-1213.154174804688	132.1962127685547	1016.688842773438	-1160.417846679688	131.0224151611328	1014.096557617188	-1210.14404296875	27.09432220458984	1004.318664550781	-1213.04443359375	-24.67712020874023	974.7332763671876	-1159.724731445312	-29.51481628417969	978.5520019531251	-1209.5078125	-90.08421325683594	920.0806274414064	-1228.860717773438	-78.27357482910156	923.0562133789064	-1179.037719726562	-134.912109375	891.0527954101564	-1189.376342773438	54.80274963378906	681.9891357421876	-1433.250732421875	54.89228820800781	602.1380615234376	-1430.074462890625	93.96280670166016	634.1641235351564	-1431.23193359375	164.1729125976562	338.8966369628907	-1451.868408203125	112.1068649291992	279.4945068359376	-1450.999877929688	161.6160430908203	276.9649963378907	-1447.834350585938	38.81688690185547	66.96679687500009	-1373.945556640625	249.5514831542969	73.29028320312509	-1373.660888671875	208.5770874023438	56.3278694152833	-1480.922241210938	69.06247711181641	653.6388549804689	-982.80078125	146.7075042724609	634.9758911132814	-980.4318237304688	107.0067520141602	604.4912719726564	-979.4019165039062	144.9121704101562	336.5584716796876	-967.2874145507812	173.5667114257812	262.5312500000001	-970.8120727539062	126.0922927856445	278.8622436523438	-975.97607421875	44.17874908447266	64.70350646972663	-1069.062133789062	253.4178009033203	67.69463348388678	-1042.336669921875	201.6412963867188	68.37995910644537	-947.0397338867188	407.4795532226562	857.6578369140626	-1211.309326171875	nan	nan	nan	417.7285766601562	905.1380004882814	-1406.664428710938	370.7276916503906	773.7174072265626	-1468.384765625	373.8524780273438	708.1140136718751	-1464.025146484375	329.205078125	491.5871887207032	-1466.142578125	302.18212890625	433.4517211914064	-1480.662353515625	327.0466003417969	433.7188720703126	-1437.381103515625	296.8656921386719	341.8489685058595	-1457.909301757812	431.5787963867188	893.0651855468751	-1020.259765625	383.0470886230469	725.3474121093751	-984.0517578125	374.2080078125	668.6129760742189	-1015.259765625	366.8257751464844	663.9193725585939	-965.9268798828125	329.2539978027344	473.7050170898438	-966.1843872070312	320.4999694824219	417.4196472167969	-996.6965942382812	311.45068359375	414.8300781250001	-946.6439208984375	289.1555786132812	340.8724975585938	-941.8241577148438	334.6535034179688	723.3726196289064	-1493.791748046875	242.4330444335938	250.6865692138673	-2311.251220703125	84.65448760986328	993.6096801757814	-1211.2109375	0.03649869933724403	0.01955159939825536	-0.1080619990825653	0.06545019894838333	0.04642429947853088	-0.01425359956920147	0.01465240027755499	0.02977260015904903	-0.01657480001449585	0.03281399980187416	1.275609970092774	-2.067199945449829	2.014679908752441	2.981029987335205	-1.982980012893677	2.840950012207031	0	0	
